<svg xmlns="http://www.w3.org/2000/svg" viewBox="0 0 512 512">
  <rect width="512" height="512" rx="108" fill="#153c39"/>
  <path d="M93 354c54-113 103-171 146-171 28 0 50 22 73 22 31 0 55-40 107-113-21 104-64 204-129 300-23-36-46-54-70-54-34 0-73 36-127 16Z" fill="#fffaf0"/>
  <path d="M145 287c33-64 64-96 93-96 19 0 38 17 57 17 18 0 41-25 68-73-18 70-48 139-89 207-18-29-36-43-54-43-22 0-47 19-75-12Z" fill="#c4492d"/>
  <circle cx="365" cy="126" r="31" fill="#f3c969"/>
  <path d="M116 397h280" stroke="#fffaf0" stroke-width="24" stroke-linecap="round"/>
</svg>
